# xmcd CD database file
#
# Track frame offsets:
#	150
#	27666
#	66179
#	96198
#	136302
#	178598
#	200903
#	228352
#	264522
#	291975
#
# Disc length: 4039 seconds
#
# Revision: 0
# Processed by: cddbd v1.5.2PL0 Copyright (c) Steve Scherf et al.
# Submitted via: CDex 1.70beta2
#
DISCID=9a0fc50a
DTITLE=Tomoki Takahashi - Nothing Like You
DYEAR=1999
DGENRE=Jazz
TTITLE0=Fi-Fa-Chi
TTITLE1=Rainy Day's Song
TTITLE2=Boo Boo's Birthday
TTITLE3=At Dawn
TTITLE4=Show-Chew King
TTITLE5=Nothing Like You
TTITLE6=Fragile Blue
TTITLE7=Last Night When We Were Young
TTITLE8=Horizonte
TTITLE9=1
EXTD=YEAR: 1999
EXTT0=
EXTT1=
EXTT2=
EXTT3=
EXTT4=
EXTT5=
EXTT6=
EXTT7=
EXTT8=
EXTT9=
PLAYORDER=
